<?xml version="1.0" encoding="utf-8"?>
<!-- Generator: Adobe Illustrator 23.0.1, SVG Export Plug-In . SVG Version: 6.00 Build 0)  -->
<svg version="1.1" id="Layer_1" xmlns="http://www.w3.org/2000/svg" xmlns:xlink="http://www.w3.org/1999/xlink" x="0px" y="0px"
	 viewBox="0 0 448 512" style="enable-background:new 0 0 448 512;" xml:space="preserve">
<style type="text/css">
	.st0{fill:#E3570B;}
</style>
<path class="st0" d="M135.2,17.7C140.6,6.8,151.7,0,163.8,0h120.4c12.1,0,23.2,6.8,28.6,17.7L320,32h96c17.7,0,32,14.3,32,32
	s-14.3,32-32,32H32C14.3,96,0,81.7,0,64s14.3-32,32-32h96L135.2,17.7z M394.8,466.1c-1.6,26.2-22.5,45.9-47.9,45.9H101.1
	c-25.3,0-46.3-19.7-47.9-45.9L31.1,128H416L394.8,466.1z"/>
</svg>
